<?xml version="1.0" encoding="UTF-8"?>
<svg width="29px" height="30px" viewBox="0 0 29 30" version="1.1" xmlns="http://www.w3.org/2000/svg" xmlns:xlink="http://www.w3.org/1999/xlink">
    <!-- Generator: sketchtool 59.1 (101010) - https://sketch.com -->
    <title>D2C5E10D-936E-4123-9BEF-AA707E88C7D9</title>
    <desc>Created with sketchtool.</desc>
    <g id="nocnsf.nl" stroke="none" stroke-width="1" fill="none" fill-rule="evenodd">
        <g id="Homepage---Desktop-720p-" transform="translate(-842.000000, -2608.000000)" fill="#FFFFFE" fill-rule="nonzero">
            <g id="Group" transform="translate(0.000000, 2583.000000)">
                <g id="Atoms-/-Logo-/-albert-heijn-Copy-Atoms-/-Logo-/-algemeen-dagblad" transform="translate(842.000000, 20.000000)">
                    <path d="M29,5 L29,34.375 L0,34.375 L0,5 L29,5 Z M28.6523457,5.35277423 L0.348886046,5.35277423 L0.348886046,34.0222269 L28.6523457,34.0222269 L28.6523457,5.35277423 Z" id="Shape"></path>
                    <path d="M18.9882626,23.8436732 L17.920032,23.8436732 L17.920032,14.8774353 L18.9452135,14.8774353 C21.3159844,14.8774353 22.9604568,16.2445622 22.9604568,19.3617836 C22.9604568,22.5632211 21.4236069,23.8436732 18.9882626,23.8436732 M19.1383192,11.25 L12.7190956,11.25 L17.7982647,27.4723375 L19.3308098,27.4723375 C24.7758956,27.4723375 27.7659574,24.1639396 27.7659574,19.3408831 C27.7659574,14.4938528 24.7974201,11.25 19.1383192,11.25 M8.16389498,21.1174104 L9.67430057,16.0355589 L11.1416571,21.1174104 L8.16389498,21.1174104 Z M12.2504765,11.25 L7.48556526,11.25 L1.85106383,27.5 L6.30602218,27.5 L7.14240309,24.7540666 L12.2043526,24.7540666 L13.0604131,27.5 L17.3671598,27.5 L12.2504765,11.25 L12.2504765,11.25 Z" id="Shape"></path>
                </g>
            </g>
        </g>
    </g>
</svg>