<?xml version="1.0" encoding="UTF-8"?>
<svg width="31px" height="33px" viewBox="0 0 31 33" version="1.1" xmlns="http://www.w3.org/2000/svg" xmlns:xlink="http://www.w3.org/1999/xlink">
    <!-- Generator: sketchtool 59.1 (101010) - https://sketch.com -->
    <title>9BD0D3C5-5C5C-4C2A-B14C-01EE4FBDC145</title>
    <desc>Created with sketchtool.</desc>
    <g id="nocnsf.nl" stroke="none" stroke-width="1" fill="none" fill-rule="evenodd">
        <g id="Homepage---Desktop-720p-" transform="translate(-1003.000000, -2606.000000)" fill="#FFFFFE">
            <g id="Group" transform="translate(0.000000, 2583.000000)">
                <g id="Atoms-/-Logo-/-albert-heijn-Copy-3-Atoms-/-Logo-/-h2" transform="translate(1003.000000, 20.000000)">
                    <g id="logo_h2" transform="translate(0.000000, 3.750000)">
                        <path d="M2.59197953,6.09749973 C2.31930607,6.09749973 2.09851015,6.31562473 2.09851015,6.58499972 C2.09851015,6.85437472 2.31930607,7.07312472 2.59197953,7.07312472 C2.86528565,7.07312472 3.08608157,6.85437472 3.08608157,6.58499972 C3.08608157,6.31562473 2.86528565,6.09749973 2.59197953,6.09749973 Z M1.97514284,5.36562517 C2.52048978,5.36562517 2.96271427,4.92875017 2.96271427,4.39000016 C2.96271427,3.85125015 2.52048978,3.41500014 1.97514284,3.41500014 C1.42979591,3.41500014 0.987571422,3.85125015 0.987571422,4.39000016 C0.987571422,4.92875017 1.42979591,5.36562517 1.97514284,5.36562517 Z M4.69048987,8.29249993 C5.23646947,8.29249993 5.67806131,7.85562493 5.67806131,7.31687494 C5.67806131,6.77812494 5.23646947,6.34124994 4.69048987,6.34124994 C4.14514292,6.34124994 3.70355108,6.77812494 3.70355108,7.31687494 C3.70355108,7.85562493 4.14514292,8.29249993 4.69048987,8.29249993 Z M1.91377543,10.7312497 C2.76532641,10.7312497 3.45618352,10.0487498 3.45618352,9.20687482 C3.45618352,8.36499986 2.76532641,7.68249989 1.91377543,7.68249989 C1.06095914,7.68249989 0.370102027,8.36499986 0.370102027,9.20687482 C0.370102027,10.0487498 1.06095914,10.7312497 1.91377543,10.7312497 Z M4.07365311,9.99937527 C4.27800004,9.99937527 4.44375513,9.83562527 4.44375513,9.63375028 C4.44375513,9.43125029 4.27800004,9.2681253 4.07365311,9.2681253 C3.86930617,9.2681253 3.70355108,9.43125029 3.70355108,9.63375028 C3.70355108,9.83562527 3.86930617,9.99937527 4.07365311,9.99937527 Z M4.07365313,11.21875 C4.1603266,11.21875 4.23877558,11.18875 4.30204089,11.139375 C4.4488164,11.404375 4.73351029,11.585 5.06059193,11.585 C5.538245,11.585 5.92542868,11.2025 5.92542868,10.73125 C5.92542868,10.26 5.538245,9.87749994 5.06059193,9.87749994 C4.65822457,9.87749994 4.31975517,10.1506249 4.22485721,10.52 L4.07365313,10.4875 C3.86930618,10.4875 3.70355108,10.65125 3.70355108,10.853125 C3.70355108,11.055 3.86930618,11.21875 4.07365313,11.21875 Z M4.93722459,8.41437519 C4.66455113,8.41437519 4.44375521,8.63250018 4.44375521,8.90187518 C4.44375521,9.17125018 4.66455113,9.39000018 4.93722459,9.39000018 C5.21053071,9.39000018 5.43132663,9.17125018 5.43132663,8.90187518 C5.43132663,8.63250018 5.21053071,8.41437519 4.93722459,8.41437519 Z M0.370102042,11.7068747 C0.575081635,11.7068747 0.740836737,11.5431247 0.740836737,11.3412497 C0.740836737,11.1387497 0.575081635,10.9749997 0.370102042,10.9749997 C0.165755103,10.9749997 1.8205845e-13,11.1387497 1.8205845e-13,11.3412497 C1.8205845e-13,11.5431247 0.165755103,11.7068747 0.370102042,11.7068747 Z M1.60440813,13.9018749 C1.60440813,13.6324999 1.38361222,13.4137499 1.11093876,13.4137499 C0.838897958,13.4137499 0.617469395,13.6324999 0.617469395,13.9018749 C0.617469395,14.1712499 0.838897958,14.3893749 1.11093876,14.3893749 C1.38361222,14.3893749 1.60440813,14.1712499 1.60440813,13.9018749 Z M19.5027957,16.0968754 C19.5027957,16.2987504 19.6685508,16.4625004 19.8728977,16.4625004 C20.0778773,16.4625004 20.2436324,16.2987504 20.2436324,16.0968754 C20.2436324,15.8943754 20.0778773,15.7306254 19.8728977,15.7306254 C19.6685508,15.7306254 19.5027957,15.8943754 19.5027957,16.0968754 Z M18.5512859,11.921875 L18.6645308,11.838125 C18.7176736,11.975 18.8517961,12.0725 19.0093267,12.0725 L19.0997961,12.060625 C19.0422246,12.174375 19.0093267,12.3025 19.0093267,12.43875 C19.0093267,12.533125 19.0257757,12.624375 19.0548777,12.71 C18.9903471,12.698125 18.9245512,12.690625 18.8581226,12.686875 C18.8758369,12.6275 18.8859593,12.564375 18.8859593,12.499375 C18.8859593,12.253125 18.7512042,12.03875 18.5512859,11.921875 Z M17.2688984,13.6912499 L17.2182862,13.5762499 C17.3346943,13.4306249 17.4042862,13.2481249 17.4042862,13.0481249 C17.4042862,12.5768749 17.0177351,12.1943749 16.5407147,12.1943749 C16.4483474,12.1943749 16.3604086,12.2087499 16.2775311,12.2349999 L16.2933474,12.0724999 C16.2933474,11.9249999 16.2560209,11.7862499 16.1889596,11.6649999 C16.2579188,11.6437499 16.3218168,11.6131249 16.3819188,11.5756249 C16.66598,11.9399999 17.1056739,12.1774999 17.6042045,12.1924999 C17.5554902,12.2843749 17.5276535,12.3887499 17.5276535,12.4993749 C17.5276535,12.7087499 17.6250821,12.8956249 17.7769188,13.0181249 C17.5516943,13.1918749 17.3745515,13.4237499 17.2688984,13.6912499 Z M12.4430206,19.5693756 C12.4588369,19.4912506 12.4670614,19.4106256 12.4670614,19.3281256 C12.4670614,19.1587506 12.4335308,18.9975006 12.3721634,18.8487506 C12.438592,18.8812506 12.5119798,18.9012506 12.5910614,18.9012506 L12.6517961,18.8950006 L12.7137961,18.9012506 C12.7137961,19.0687506 12.7992043,19.2156256 12.9288981,19.3031256 C12.7441634,19.3506256 12.5777757,19.4437506 12.4430206,19.5693756 Z M2.03271427,15.3912504 C2.05232652,15.3393754 2.06434693,15.2843754 2.06434693,15.2262504 L2.06055101,15.1887504 L2.18391836,15.3056254 L2.03271427,15.3912504 Z M20.2436326,21.5231255 C20.2436326,21.2200005 19.995,20.9743755 19.6875306,20.9743755 L19.6261632,20.9806255 L19.6267959,20.9743755 C19.6267959,20.5200005 19.2668163,20.1500005 18.8144693,20.1231255 C18.8581224,20.0531255 18.8954489,19.9787505 18.9251836,19.9006255 C19.0396938,20.0025005 19.1814081,20.0750005 19.3389387,20.1050005 C19.4066326,20.1881255 19.5097551,20.2425005 19.6267959,20.2425005 C19.7950816,20.2425005 19.9355306,20.1306255 19.9804489,19.9781255 C20.2138979,19.8256255 20.367,19.5637505 20.367,19.2668755 C20.367,19.0562505 20.2898163,18.8637504 20.1620204,18.7156254 C20.3657346,18.4887504 20.4903673,18.1918754 20.4903673,17.8650004 C20.4903673,17.2068754 19.9874081,16.6650004 19.3414693,16.5931254 C19.3661428,16.5137504 19.3794285,16.4287504 19.3794285,16.3406254 C19.3794285,16.1337503 19.3047755,15.9437503 19.1814081,15.7962503 C19.8640408,15.6143753 20.367,15.0000003 20.367,14.2675003 C20.367,13.8937503 20.2354081,13.5506252 20.0158775,13.2793752 C20.425204,13.2118752 20.7377346,12.8618752 20.7377346,12.4387502 C20.7377346,11.9668752 20.350551,11.5850002 19.8728979,11.5850002 C19.6875306,11.5850002 19.5167142,11.6431252 19.3756326,11.7412502 L19.3794285,11.7068752 L19.356653,11.5837502 L19.3794285,11.5850002 C19.8564489,11.5850002 20.2436326,11.2025002 20.2436326,10.7312501 C20.2436326,10.2600001 19.8564489,9.87750011 19.3794285,9.87750011 C19.2807346,9.87750011 19.1858367,9.89500011 19.0972653,9.92500011 C18.8385102,9.39250009 18.2893673,9.02437508 17.651653,9.02437508 C16.971551,9.02437508 16.3920408,9.4425001 16.1579591,10.0318751 C16.0833061,10.0112501 16.0048571,9.99937512 15.9232449,9.99937512 C15.8283469,9.99937512 15.7366122,10.0156251 15.6518367,10.0431251 L15.6372857,9.98937512 C15.8011428,9.95125012 15.9232449,9.80687511 15.9232449,9.6337501 C15.9232449,9.4312501 15.7581224,9.26812509 15.5525102,9.26812509 C15.4013061,9.26812509 15.2709796,9.35875009 15.2134081,9.4875001 C15.0938367,9.4256251 14.9571836,9.39000009 14.8123061,9.39000009 C14.3352857,9.39000009 13.948102,9.77187511 13.948102,10.2431251 C13.948102,10.7150001 14.3352857,11.0968752 14.8123061,11.0968752 C14.9078367,11.0968752 14.9983061,11.0812502 15.0843469,11.0531252 C15.1014285,11.1262502 15.128,11.1962502 15.1640612,11.2606252 C14.8167347,11.3712502 14.5655714,11.6931252 14.5655714,12.0725002 C14.5655714,12.5437502 14.9521224,12.9262502 15.4297755,12.9262502 C15.5215102,12.9262502 15.6094489,12.9118752 15.6923265,12.8856252 L15.6765102,13.0481252 C15.6765102,13.3800002 15.868204,13.6668753 16.149102,13.8081253 L16.1022857,13.8693753 C15.9295714,13.8118753 15.7454693,13.7800003 15.5525102,13.7800003 C14.599102,13.7800003 13.8247347,14.5443753 13.8247347,15.4868753 C13.8247347,16.0356253 14.088551,16.5231254 14.4953469,16.8356254 C14.3245306,16.8675004 14.1954694,17.0156254 14.1954694,17.1937504 C14.1954694,17.3962504 14.3612245,17.5600004 14.5655714,17.5600004 L14.5731632,17.5593754 L14.5775918,17.5925004 C14.2144489,17.6937504 13.948102,18.0225004 13.948102,18.4137504 C13.8000612,18.4137504 13.6684694,18.4793754 13.578,18.5818754 C13.4875306,18.4793754 13.3565714,18.4137504 13.2072653,18.4137504 L13.0826326,18.4312504 L13.0845306,18.4137504 C13.0845306,18.1443754 12.863102,17.9256254 12.5910612,17.9256254 C12.3177551,17.9256254 12.0963265,18.1443754 12.0963265,18.4137504 L12.0988571,18.4350004 C11.8635102,18.1962504 11.5351632,18.0481254 11.1713877,18.0481254 C10.7247347,18.0481254 10.3305918,18.2712504 10.0971428,18.6106254 C10.0357755,18.5643754 9.95922446,18.5356254 9.87508161,18.5356254 C9.79789793,18.5356254 9.72577548,18.5593754 9.66693875,18.5993754 C9.54610201,18.4968754 9.40628569,18.4168754 9.25255099,18.3643754 C9.22724487,18.1181254 9.01973467,17.9256254 8.76414283,17.9256254 C8.49146936,17.9256254 8.27067345,18.1443754 8.27067345,18.4137504 L8.27067345,18.4162504 C8.07075508,18.5100004 7.8993061,18.6525004 7.77151018,18.8293754 L7.77657141,18.7793754 C7.77657141,18.5100004 7.55577549,18.2918754 7.28310202,18.2918754 C7.11038773,18.2918754 6.958551,18.3793754 6.87061222,18.5125004 C6.77697957,18.4800004 6.68081631,18.4556254 6.58148977,18.4387504 C6.63526529,18.2981254 6.66563263,18.1462504 6.66563263,17.9868754 C6.66563263,17.6656254 6.54542855,17.3731254 6.3480408,17.1487504 C6.46318365,17.0868754 6.54226529,16.9675004 6.54226529,16.8287504 C6.54226529,16.6262504 6.37587753,16.4625004 6.17153059,16.4625004 C5.98299998,16.4625004 5.82926529,16.6025004 5.80648978,16.7825004 C5.66920406,16.7343754 5.52306121,16.7062504 5.36995916,16.7062504 C5.1187959,16.7062504 4.88534692,16.7781254 4.68732651,16.9000004 L4.69048978,16.8287504 C4.69048978,16.7493754 4.68353059,16.6718754 4.67277549,16.5956254 C4.74046937,16.6637504 4.83346937,16.7062504 4.93722447,16.7062504 C5.14220406,16.7062504 5.30795917,16.5425004 5.30795917,16.3406254 C5.30795917,16.1387503 5.14220406,15.9750003 4.93722447,15.9750003 C4.7683061,15.9750003 4.62785713,16.0868753 4.58293876,16.2400003 C4.52157141,16.0737503 4.43426529,15.9193753 4.32608162,15.7818753 C4.47032651,15.6968753 4.56712243,15.5425003 4.56712243,15.3650003 L4.54940815,15.2412503 L4.56712243,15.2431253 C4.77146937,15.2431253 4.93722447,15.0793753 4.93722447,14.8768753 C4.93722447,14.6750003 4.77146937,14.5118753 4.56712243,14.5118753 C4.36277549,14.5118753 4.19702039,14.6750003 4.19702039,14.8768753 L4.19891835,14.8950003 L4.07365304,14.8768753 C3.84463264,14.8768753 3.65357141,15.0325003 3.59789794,15.2418753 C3.52830611,15.2143753 3.45681631,15.1925003 3.38406121,15.1743753 C3.50616325,15.0268753 3.58018366,14.8387503 3.58018366,14.6331253 C3.58018366,14.5106253 3.55297958,14.3937503 3.5055306,14.2881253 C3.6605306,14.3531253 3.83197958,14.3893753 4.01165305,14.3893753 C4.72781631,14.3893753 5.30795917,13.8162503 5.30795917,13.1087502 C5.30795917,12.4018752 4.72781631,11.8287502 4.01165305,11.8287502 C3.62067345,11.8287502 3.27081631,12.0006252 3.03293876,12.2712502 C3.06710203,12.1912502 3.08608162,12.1037502 3.08608162,12.0118752 C3.08608162,11.8768752 3.04559182,11.7512502 2.97599999,11.6462502 C3.04622448,11.6837502 3.12467345,11.7068752 3.20944896,11.7068752 C3.48212243,11.7068752 3.703551,11.4881252 3.703551,11.2187502 C3.703551,10.9493752 3.48212243,10.7312501 3.20944896,10.7312501 C2.9367755,10.7312501 2.71534693,10.9493752 2.71534693,11.2187502 C2.71534693,11.3031252 2.73875509,11.3806252 2.77671427,11.4500002 C2.67042856,11.3812502 2.54389795,11.3412502 2.40724488,11.3412502 C2.18075509,11.3412502 1.97957142,11.4512502 1.85683672,11.6200002 C1.71575509,11.5212502 1.54430611,11.4631252 1.35830611,11.4631252 C0.880653051,11.4631252 0.494102031,11.8450002 0.494102031,12.3162502 C0.494102031,12.7881252 0.880653051,13.1700002 1.35830611,13.1700002 C1.49432652,13.1700002 1.62275509,13.1381252 1.73663264,13.0825002 L1.72840815,13.1700002 C1.72840815,13.4393752 1.94920407,13.6581253 2.22187754,13.6581253 C2.49455101,13.6581253 2.71534693,13.4393752 2.71534693,13.1700002 C2.71534693,12.9006252 2.49455101,12.6825002 2.22187754,12.6825002 L2.13330611,12.6912502 L2.15861223,12.6356252 C2.23642856,12.6650002 2.31930611,12.6825002 2.40724488,12.6825002 C2.58691835,12.6825002 2.75014284,12.6125002 2.87161223,12.5000002 C2.7722857,12.6812502 2.71534693,12.8887502 2.71534693,13.1087502 C2.71534693,13.3662502 2.79316325,13.6056253 2.92538774,13.8062503 C2.85832652,13.7893753 2.78873468,13.7800003 2.71534693,13.7800003 C2.23832652,13.7800003 1.8517755,14.1618753 1.8517755,14.6331253 C1.8517755,14.7118753 1.86316325,14.7875003 1.88340815,14.8593753 C1.80179591,14.7956253 1.69993876,14.7556253 1.58732652,14.7556253 C1.44497958,14.7556253 1.31781632,14.8187503 1.23051019,14.9175003 L1.23493876,14.8768753 C1.23493876,14.6750003 1.06855101,14.5118753 0.864204071,14.5118753 C0.65922448,14.5118753 0.494102031,14.6750003 0.494102031,14.8768753 C0.494102031,15.0793753 0.65922448,15.2431253 0.864204071,15.2431253 C0.963530602,15.2431253 1.05273468,15.2037503 1.11979591,15.1412503 L1.11093876,15.2262503 C1.11093876,15.4862503 1.32414285,15.6968753 1.58732652,15.6968753 L1.67969387,15.6881253 C1.56708162,15.8112503 1.47281632,15.9500003 1.40069387,16.1006253 L1.35830611,16.0968753 C1.15395917,16.0968753 0.987571418,16.2606254 0.987571418,16.4625004 C0.987571418,16.6218754 1.09132652,16.7562504 1.23557142,16.8062504 L1.23493876,16.8287504 C1.23493876,16.9118754 1.2425306,16.9937504 1.25455101,17.0737504 L1.23493876,17.0725004 C0.961632643,17.0725004 0.740836725,17.2906254 0.740836725,17.5600004 L0.747163255,17.6250004 C0.516244888,17.8368754 0.370102032,18.1387504 0.370102032,18.4743754 C0.370102032,18.9006254 0.60544897,19.2700005 0.952142847,19.4712505 C0.905959173,19.6000005 0.846489786,19.8631255 0.995795908,20.1293755 C0.573183664,20.1850005 0.246734685,20.5418755 0.246734685,20.9743755 C0.246734685,21.4456255 0.633918358,21.8281256 1.11093876,21.8281256 C1.22797958,21.8281256 1.33932652,21.8050006 1.44055101,21.7637506 C1.31275509,21.9125006 1.23493876,22.1050006 1.23493876,22.3156256 C1.23493876,22.6743756 1.45826529,22.9806256 1.77522448,23.1068756 C1.03818366,23.3018756 0.494102031,23.9643756 0.494102031,24.7550007 L0.494102031,29.0837508 C0.494102031,29.7156259 0.567489786,30.2256259 0.714897949,30.6143759 C0.862938765,31.0031259 1.08373468,31.3068759 1.37918366,31.5256259 C1.67463264,31.7443759 2.03714284,31.8962509 2.46797958,31.9812509 C2.89755101,32.0656259 3.39608162,32.1087509 3.96167345,32.1087509 C4.52789794,32.1087509 5.09918366,32.0718759 5.67742855,31.9987509 C6.2550408,31.9262509 6.679551,31.8531259 6.95032651,31.7806259 L6.95032651,23.3975006 L14.0341428,23.3975006 L14.0341428,29.0837508 C14.0341428,29.7156259 14.1075306,30.2256259 14.2555714,30.6143759 C14.4029796,31.0031259 14.6244081,31.3068759 14.9192245,31.5256259 C15.2146734,31.7443759 15.5771836,31.8962509 16.0080204,31.9812509 C16.4382245,32.0656259 16.9361224,32.1087509 17.5017142,32.1087509 C18.0673061,32.1087509 18.6392244,32.0718759 19.2174693,31.9987509 C19.7950816,31.9262509 20.2195918,31.8531259 20.4903673,31.7806259 L20.4903673,23.2912506 C20.4903673,22.7868756 20.2676734,22.3350006 19.9159183,22.0225006 C20.1088775,21.9362506 20.2436326,21.7456256 20.2436326,21.5231255 Z M0.740836737,15.9750006 C0.740836737,15.7731256 0.575081635,15.6087506 0.370102042,15.6087506 C0.165755103,15.6087506 1.8205845e-13,15.7731256 1.8205845e-13,15.9750006 C1.8205845e-13,16.1768756 0.165755103,16.3406256 0.370102042,16.3406256 C0.575081635,16.3406256 0.740836737,16.1768756 0.740836737,15.9750006 Z M20.8604697,20.3649998 C20.6561228,20.3649998 20.4903677,20.5281248 20.4903677,20.7306248 C20.4903677,20.9324998 20.6561228,21.0962497 20.8604697,21.0962497 C21.0654493,21.0962497 21.2312044,20.9324998 21.2312044,20.7306248 C21.2312044,20.5281248 21.0654493,20.3649998 20.8604697,20.3649998 Z M30.3293863,30.1031253 C30.2578965,29.8850003 30.1826108,29.7050003 30.1047945,29.5631253 L25.4199987,29.5631253 L27.9771823,27.5387503 C29.5252843,26.3175003 30.2996516,25.0318753 30.2996516,23.6818753 C30.2996516,23.1806253 30.1952639,22.7112503 29.9877537,22.2737503 C29.7796108,21.8375003 29.4734068,21.4581253 29.0704068,21.1362503 C28.6667741,20.8150003 28.178366,20.5612503 27.605815,20.3743753 C27.033264,20.1881253 26.3765701,20.0950003 25.6344681,20.0950003 C24.5545294,20.0950003 23.6953865,20.2593753 23.0583049,20.5868753 C22.4205907,20.9150003 22.1017335,21.4131253 22.1017335,22.0812503 C22.1017335,22.3900003 22.1725907,22.6600003 22.3162029,22.8912503 C22.4591825,23.1225003 22.6413866,23.3156253 22.8628151,23.4693753 C23.1361213,23.2900003 23.4777539,23.1193753 23.8877131,22.9587503 C24.2976722,22.7981253 24.7626722,22.7175003 25.2833457,22.7175003 C25.7515089,22.7175003 26.1456518,22.8206253 26.4638763,23.0262503 C26.7827334,23.2318753 26.942162,23.5150003 26.942162,23.8743753 C26.942162,24.0162503 26.9130599,24.1637503 26.8548558,24.3181253 C26.7960191,24.4725003 26.6985905,24.6400003 26.5619375,24.8200003 C26.4252844,25.0000003 26.2462436,25.2025003 26.024815,25.4268753 C25.8033865,25.6525003 25.5237538,25.9062503 25.1859171,26.1887503 L22.4920805,28.4643753 C22.2706519,28.6443753 22.0688356,28.8856253 21.8866315,29.1875003 C21.7044274,29.4893753 21.6133254,29.8593753 21.6133254,30.2962503 C21.6133254,30.7081253 21.694305,31.0643753 21.8575295,31.3662503 C22.0201213,31.6687503 22.2447131,31.9162503 22.531305,32.1087503 L29.3044884,32.1087503 C29.6429578,32.1087503 29.9156312,32.0093753 30.1244067,31.8100003 C30.3325496,31.6106253 30.4369374,31.2800003 30.4369374,30.8168753 C30.4369374,30.5600003 30.4002435,30.3218753 30.3293863,30.1031253 Z M19.1326942,9.02437481 C19.1326942,9.22624981 19.2984493,9.38999981 19.5027963,9.38999981 C19.7077759,9.38999981 19.8728983,9.22624981 19.8728983,9.02437481 C19.8728983,8.82187481 19.7077759,8.6581248 19.5027963,8.6581248 C19.2984493,8.6581248 19.1326942,8.82187481 19.1326942,9.02437481 Z M13.5779997,18.2918754 C13.7829792,18.2918754 13.9481017,18.1281254 13.9481017,17.9256254 C13.9481017,17.7237504 13.7829792,17.5600004 13.5779997,17.5600004 C13.3736527,17.5600004 13.207265,17.7237504 13.207265,17.9256254 C13.207265,18.1281254 13.3736527,18.2918754 13.5779997,18.2918754 Z M16.6640816,4.75624986 C16.9367551,4.75624986 17.157551,4.53749986 17.157551,4.26812486 C17.157551,3.99874987 16.9367551,3.78062487 16.6640816,3.78062487 C16.3914082,3.78062487 16.1699796,3.99874987 16.1699796,4.26812486 C16.1699796,4.53749986 16.3914082,4.75624986 16.6640816,4.75624986 Z M15.4297759,8.53625 C15.9067963,8.53625 16.2933474,8.154375 16.2933474,7.68250001 C16.2933474,7.21125002 15.9067963,6.82937503 15.4297759,6.82937503 C14.9521229,6.82937503 14.5655719,7.21125002 14.5655719,7.68250001 C14.5655719,8.154375 14.9521229,8.53625 15.4297759,8.53625 Z M14.9363067,13.2918747 C14.9363067,13.0224997 14.7148781,12.8043747 14.441572,12.8043747 C14.1695312,12.8043747 13.9481026,13.0224997 13.9481026,13.2918747 C13.9481026,13.5612497 14.1695312,13.7799997 14.441572,13.7799997 C14.7148781,13.7799997 14.9363067,13.5612497 14.9363067,13.2918747 Z M19.3794291,0.731875002 C19.583776,0.731875002 19.7495311,0.568125002 19.7495311,0.366250001 C19.7495311,0.163750001 19.583776,0 19.3794291,0 C19.1750822,0 19.0093271,0.163750001 19.0093271,0.366250001 C19.0093271,0.568125002 19.1750822,0.731875002 19.3794291,0.731875002 Z M18.26849,7.560625 C18.4734696,7.560625 18.638592,7.39687501 18.638592,7.19500002 C18.638592,6.99312502 18.4734696,6.82937503 18.26849,6.82937503 C18.0641431,6.82937503 17.898388,6.99312502 17.898388,7.19500002 C17.898388,7.39687501 18.0641431,7.560625 18.26849,7.560625 Z M5.92542865,14.6331251 C5.44777557,14.6331251 5.06059188,15.0156251 5.06059188,15.4868751 C5.06059188,15.9581251 5.44777557,16.3406251 5.92542865,16.3406251 C6.40181643,16.3406251 6.78900012,15.9581251 6.78900012,15.4868751 C6.78900012,15.0156251 6.40181643,14.6331251 5.92542865,14.6331251 Z M6.41889777,13.0481255 C6.21455083,13.0481255 6.04879573,13.2118755 6.04879573,13.4137505 L6.05385695,13.4668755 C5.96338757,13.3606255 5.82926512,13.2918755 5.67806103,13.2918755 C5.40538756,13.2918755 5.18459164,13.5100005 5.18459164,13.7800005 C5.18459164,14.0493755 5.40538756,14.2675005 5.67806103,14.2675005 C5.95136716,14.2675005 6.17153042,14.0493755 6.17153042,13.7800005 L6.16014267,13.6750005 C6.22657124,13.7400005 6.31830594,13.7800005 6.41889777,13.7800005 C6.62324471,13.7800005 6.78899982,13.6156255 6.78899982,13.4137505 C6.78899982,13.2118755 6.62324471,13.0481255 6.41889777,13.0481255 Z M4.50512238,2.92687491 C4.88028566,2.92687491 5.18459179,2.62687492 5.18459179,2.25624993 C5.18459179,1.88562495 4.88028566,1.58562496 4.50512238,1.58562496 C4.13059176,1.58562496 3.82628562,1.88562495 3.82628562,2.25624993 C3.82628562,2.62687492 4.13059176,2.92687491 4.50512238,2.92687491 Z M6.41889786,11.8287495 C6.62324479,11.8287495 6.78899989,11.6649995 6.78899989,11.4631245 C6.78899989,11.2606245 6.62324479,11.0968745 6.41889786,11.0968745 C6.21455093,11.0968745 6.04879584,11.2606245 6.04879584,11.4631245 C6.04879584,11.6649995 6.21455093,11.8287495 6.41889786,11.8287495 Z M5.80142879,12.8043754 C6.07410225,12.8043754 6.29553082,12.5856254 6.29553082,12.3162504 C6.29553082,12.0468754 6.07410225,11.8287504 5.80142879,11.8287504 C5.52938797,11.8287504 5.3079594,12.0468754 5.3079594,12.3162504 C5.3079594,12.5856254 5.52938797,12.8043754 5.80142879,12.8043754 Z M7.52983697,18.1699994 C7.7341839,18.1699994 7.89993899,18.0056244 7.89993899,17.8037494 C7.89993899,17.6018744 7.7341839,17.4381244 7.52983697,17.4381244 C7.32485738,17.4381244 7.15973494,17.6018744 7.15973494,17.8037494 C7.15973494,18.0056244 7.32485738,18.1699994 7.52983697,18.1699994 Z M9.81308186,18.2918746 C9.98389819,18.2918746 10.1218166,18.1549996 10.1218166,17.9868746 C10.1218166,17.8187496 9.98389819,17.6818746 9.81308186,17.6818746 C9.64289819,17.6818746 9.50497982,17.8187496 9.50497982,17.9868746 C9.50497982,18.1549996 9.64289819,18.2918746 9.81308186,18.2918746 Z M11.4794895,16.9500005 C11.6838364,16.9500005 11.8502242,16.7868755 11.8502242,16.5843755 C11.8502242,16.3825005 11.6838364,16.2187505 11.4794895,16.2187505 C11.2751425,16.2187505 11.1093874,16.3825005 11.1093874,16.5843755 C11.1093874,16.7868755 11.2751425,16.9500005 11.4794895,16.9500005 L11.4794895,16.9500005 Z" id="Shape"></path>
                    </g>
                </g>
            </g>
        </g>
    </g>
</svg>