<?xml version="1.0" encoding="utf-8"?>
<!-- Generator: Adobe Illustrator 16.0.0, SVG Export Plug-In . SVG Version: 6.00 Build 0)  -->
<!DOCTYPE svg PUBLIC "-//W3C//DTD SVG 1.1//EN" "http://www.w3.org/Graphics/SVG/1.1/DTD/svg11.dtd">
<svg version="1.1" id="Layer_1" xmlns="http://www.w3.org/2000/svg" xmlns:xlink="http://www.w3.org/1999/xlink" x="0px" y="0px"
	 width="91.963px" height="17.6px" viewBox="0 0 91.963 17.6" enable-background="new 0 0 91.963 17.6" xml:space="preserve">
<g>
	<defs>
		<rect id="SVGID_1_" y="0" width="91.963" height="17.6"/>
	</defs>
	<clipPath id="SVGID_2_">
		<use xlink:href="#SVGID_1_"  overflow="visible"/>
	</clipPath>
	<path clip-path="url(#SVGID_2_)" fill="#F37321" d="M86.803,13.375V0h-4.492v14.418c0.01,1.545,1.254,2.797,2.797,2.82h6.855
		v-3.863H86.803z"/>
	<path clip-path="url(#SVGID_2_)" fill="#F37321" d="M14.776,0H0v1.031c0.004,1.565,1.272,2.83,2.836,2.83h2.306v10.545
		c0.002,1.551,1.25,2.809,2.796,2.832h1.695V3.861h5.143V0z"/>
	<path clip-path="url(#SVGID_2_)" fill="#F37321" d="M61.148,6.156c-0.299-0.531-0.742-0.967-1.328-1.305
		c-0.588-0.338-1.381-0.506-2.379-0.506c-0.854,0-1.594,0.168-2.221,0.506c-0.629,0.338-1.191,0.846-1.689,1.522
		c-0.338-0.756-0.834-1.283-1.487-1.582c-0.649-0.297-1.372-0.446-2.159-0.446c-0.773,0-1.473,0.19-2.102,0.567
		c-0.627,0.379-1.126,0.881-1.496,1.51h-0.048V4.708h-3.984v9.719c0.012,1.541,1.255,2.788,2.795,2.812h1.309v-6.109
		c0-1.271,0.165-2.157,0.494-2.657c0.33-0.498,0.867-0.748,1.606-0.748c0.563,0,0.962,0.215,1.194,0.641
		c0.234,0.428,0.352,1.01,0.352,1.75v4.287c0,1.553,1.247,2.813,2.797,2.836h1.307v-6.133c0-0.498,0.016-0.957,0.049-1.377
		c0.033-0.418,0.115-0.775,0.254-1.074c0.137-0.297,0.334-0.527,0.591-0.687c0.257-0.161,0.604-0.243,1.038-0.243
		c0.531,0,0.949,0.192,1.256,0.569c0.307,0.379,0.459,0.906,0.459,1.58v4.545c0.008,1.545,1.252,2.797,2.795,2.82h1.309V9.752
		c0-0.594-0.043-1.208-0.133-1.846C61.639,7.27,61.445,6.688,61.148,6.156"/>
	<path clip-path="url(#SVGID_2_)" fill="#F37321" d="M75.141,0v10.623h-0.049L69.104,0h-4.611v14.441
		c0.021,1.535,1.262,2.773,2.795,2.797h1.432V6.494h0.047l5.988,10.744h4.611V0H75.141z"/>
	<path clip-path="url(#SVGID_2_)" fill="#F37321" d="M25.75,8.993c-0.21-0.936-0.597-1.735-1.144-2.426
		c-0.547-0.692-1.24-1.235-2.076-1.629c-0.837-0.395-1.82-0.592-2.946-0.592c-0.918,0-1.787,0.164-2.608,0.494
		c-0.82,0.33-1.541,0.785-2.16,1.363c-0.62,0.581-1.108,1.274-1.462,2.079C13,9.086,12.823,9.971,12.823,10.936
		c0,1.047,0.165,1.984,0.496,2.814c0.33,0.828,0.796,1.529,1.4,2.1c0.604,0.572,1.328,1.006,2.173,1.305
		c0.845,0.297,1.774,0.445,2.788,0.445c0.692,0,1.373-0.08,2.04-0.24c0.668-0.162,1.28-0.409,1.836-0.748
		c0.555-0.338,1.038-0.77,1.448-1.293c0.029-0.037,0.057-0.074,0.085-0.113c0.126-0.18,0.177-0.421,0.18-0.656
		c-0.001-0.609-0.459-1.078-1.062-1.102h-2.136c-0.193,0.469-0.507,0.813-0.942,1.039c-0.434,0.225-0.901,0.339-1.4,0.339
		c-0.869,0-1.545-0.259-2.028-0.774c-0.484-0.516-0.741-1.207-0.773-2.076H26C26.049,10.912,25.958,9.922,25.75,8.993 M16.928,9.68
		c0.129-0.771,0.422-1.391,0.881-1.857c0.459-0.467,1.051-0.702,1.775-0.702c0.692,0,1.263,0.25,1.714,0.75
		c0.451,0.498,0.692,1.102,0.725,1.809H16.928z"/>
	<path clip-path="url(#SVGID_2_)" fill="#F37321" d="M39.733,15.656c-0.041-0.555-0.061-1.098-0.061-1.629v-5.48
		c0-0.887-0.165-1.602-0.495-2.149c-0.33-0.549-0.768-0.974-1.316-1.281c-0.547-0.305-1.17-0.51-1.871-0.615
		c-0.7-0.104-1.421-0.157-2.161-0.157c-0.724,0-1.428,0.065-2.113,0.194c-0.684,0.127-1.307,0.353-1.871,0.676
		c-0.563,0.32-1.022,0.757-1.376,1.302C28.115,7.066,27.922,7.75,27.89,8.57h3.838C31.922,7.523,32.606,7,33.781,7
		c0.209,0,0.43,0.025,0.663,0.074c0.234,0.047,0.448,0.125,0.64,0.228c0.194,0.106,0.355,0.239,0.484,0.399
		c0.128,0.16,0.193,0.361,0.193,0.603c0,0.387-0.093,0.657-0.277,0.809c-0.186,0.154-0.456,0.27-0.81,0.35
		c-0.483,0.097-0.994,0.177-1.533,0.242s-1.079,0.145-1.617,0.242c-0.54,0.096-1.059,0.225-1.558,0.387
		c-0.499,0.16-0.942,0.385-1.329,0.676c-0.386,0.289-0.691,0.66-0.916,1.109c-0.226,0.451-0.339,1.017-0.339,1.691
		c0,0.643,0.109,1.203,0.326,1.676c0.217,0.477,0.519,0.871,0.906,1.184c0.386,0.314,0.841,0.549,1.364,0.701
		C30.5,17.523,31.06,17.6,31.656,17.6c0.756,0,1.501-0.115,2.234-0.35c0.549-0.174,1.041-0.441,1.477-0.803
		c0.003-0.002,0.005-0.006,0.008-0.006c0.067-0.058,0.134-0.117,0.2-0.178c0.071-0.068,0.142-0.137,0.21-0.209h0.001
		c0.508,0.707,1.335,1.172,2.271,1.184h2.098C39.914,16.738,39.773,16.213,39.733,15.656 M35.229,14.197
		c-0.37,0.578-1.046,0.867-2.028,0.867c-0.467,0-0.869-0.107-1.207-0.324c-0.338-0.219-0.507-0.584-0.507-1.1
		c0-0.498,0.165-0.861,0.495-1.086s0.728-0.395,1.195-0.508c0.451-0.129,0.914-0.229,1.389-0.301
		c0.474-0.074,0.856-0.197,1.146-0.375C35.761,12.677,35.6,13.617,35.229,14.197"/>
</g>
</svg>
