<?xml version="1.0" encoding="utf-8"?>
<!-- Generator: Adobe Illustrator 16.0.0, SVG Export Plug-In . SVG Version: 6.00 Build 0)  -->
<!DOCTYPE svg PUBLIC "-//W3C//DTD SVG 1.1//EN" "http://www.w3.org/Graphics/SVG/1.1/DTD/svg11.dtd">
<svg version="1.1" id="Layer_1" xmlns="http://www.w3.org/2000/svg" xmlns:xlink="http://www.w3.org/1999/xlink" x="0px" y="0px"
	 width="163.383px" height="250.886px" viewBox="0 0 163.383 250.886" enable-background="new 0 0 163.383 250.886"
	 xml:space="preserve">
<g>
	<defs>
		<path id="SVGID_1_" d="M92.184,146.382c0,0-1.022,4.269-2.11,7.416c-1.297,3.743-3.021,7.121-3.021,7.121
			c5.472-6.367,8.354-14.724,8.354-14.724L92.184,146.382z M38.085,123.102c14.528,20.198,37.118,19.881,37.118,19.881
			c-8.602-3.199-19.817-9.875-31.078-23.724c-9.839-12.119-13.591-28.794-14.631-44.031
			C29.494,75.228,23.548,102.906,38.085,123.102 M138.099,66.43c-4.83,6.186-12.878,7.865-12.883,29.625
			c0,1.173,0.023,2.405,0.071,3.699c0.121,1.667,0.178,3.324,0.177,4.957c-0.004,9.365-1.93,17.923-4.967,23.025
			c0,0,10.345-15.166,10.334-33.197c-0.001-0.849-0.024-1.703-0.073-2.562c-0.042-0.748-0.062-1.484-0.063-2.208
			C130.686,76.683,137.17,67.656,138.099,66.43L138.099,66.43 M138.099,66.43c0.037-0.048,0.074-0.095,0.11-0.143
			C138.209,66.287,138.171,66.335,138.099,66.43 M104.798,101.431c-3.136,29.478-8.532,41.248-8.532,41.248
			s30.413-5.912,26.659-42.467c-3.646-35.486,12.396-48.734,12.396-48.734S108.239,69.073,104.798,101.431 M127.417,40.364
			c0,0-7.178,13.445-15.346,15.609c-5.174,1.372-14.729,3.449-14.711,10.858c0.003,1.116,0.222,2.352,0.707,3.726
			c3.735,10.582,4.298,17.34,4.298,20.448c0,1.337-0.104,1.999-0.104,1.999c2.354-10.533,3.431-16.318,10.464-26.781
			C119.76,55.762,127.417,40.364,127.417,40.364L127.417,40.364 M47.29,116.57c23.358,28.741,45.879,26.5,45.879,26.5
			c-0.065-0.633,10.474-27.773-10.128-44.342C62.437,82.151,48.454,75.645,42.682,63.349c-5.769-12.289-7.791-29.907-7.791-29.907
			S23.938,87.829,47.29,116.57 M73.772,27.648c-0.001-0.002-0.002-0.003-0.002-0.003s0.232,5.602-1.74,8.325
			c-1.633,2.253-4.396,5.055-4.389,7.89c0.001,0.588,0.122,1.177,0.396,1.764c0.063,0.133,0.13,0.265,0.203,0.396
			c1.778,3.211,6.5,5.576,11.864,8.88c9.642,5.938,14.844,15.638,14.844,15.638s-0.027-0.086-0.077-0.246
			c-0.496-1.584-3.211-10.425-3.564-15.107c-0.351-4.613,1.334-5.493,0.574-9.825c-0.09-0.51-0.214-1.069-0.379-1.687
			c-0.159-0.596-0.351-1.142-0.574-1.644c-1.967-4.445-6.268-5.493-10.194-7.422c-4.375-2.147-6.962-6.962-6.962-6.962
			S73.772,27.646,73.772,27.648"/>
	</defs>
	<clipPath id="SVGID_2_">
		<use xlink:href="#SVGID_1_"  overflow="visible"/>
	</clipPath>
	
		<linearGradient id="SVGID_3_" gradientUnits="userSpaceOnUse" x1="0" y1="250.9214" x2="1" y2="250.9214" gradientTransform="matrix(23.3727 132.5529 -132.5529 23.3727 33329.3984 -5837.2427)">
		<stop  offset="0" style="stop-color:#F49224"/>
		<stop  offset="0.1417" style="stop-color:#F49224"/>
		<stop  offset="0.677" style="stop-color:#EF6325"/>
		<stop  offset="1" style="stop-color:#ED4225"/>
	</linearGradient>
	<polygon clip-path="url(#SVGID_2_)" fill="url(#SVGID_3_)" points="0.757,31.664 27.005,180.528 161,156.901 134.752,8.037 	"/>
</g>
<g>
	<defs>
		<rect id="SVGID_4_" width="163.383" height="250.886"/>
	</defs>
	<clipPath id="SVGID_5_">
		<use xlink:href="#SVGID_4_"  overflow="visible"/>
	</clipPath>
	<path clip-path="url(#SVGID_5_)" fill="#FFFFFF" d="M98.35,116.832c0,0,9.49-37.274-16.788-54.758
		C55.277,44.583,52.296,40.592,50.922,35.58c-1.38-5.012-2.078-11.818-2.078-11.818s-5.71,17.555-4.42,30.094
		C45.71,66.396,59.423,76.573,71.049,83.12C95.899,97.109,98.35,116.832,98.35,116.832"/>
	<path clip-path="url(#SVGID_5_)" fill="#21409A" d="M98.35,116.832c0,0,1.244-26.562-23.682-40.596
		c-11.663-6.568-23.616-15.561-26.022-27.764c-2.442-12.405,0.198-24.71,0.198-24.71s-5.71,17.555-4.42,30.094
		C45.71,66.396,59.423,76.573,71.049,83.12C95.899,97.109,98.35,116.832,98.35,116.832"/>
	<path clip-path="url(#SVGID_5_)" fill="#ED1C24" d="M98.35,116.832c0,0,9.49-37.274-16.788-54.758
		C55.277,44.583,52.296,40.592,50.922,35.58c-1.38-5.012-2.078-11.818-2.078-11.818s-0.766,8.799,0.62,13.825
		c1.376,5.028,2.126,12.996,28.488,30.542C104.313,85.667,98.35,116.832,98.35,116.832"/>
	<path clip-path="url(#SVGID_5_)" fill="#F37321" d="M122.435,177.052v-13.375h-4.492v14.418c0.01,1.545,1.254,2.797,2.797,2.82
		h6.854v-3.863H122.435z"/>
	<path clip-path="url(#SVGID_5_)" fill="#F37321" d="M50.408,163.677H35.632v1.031c0.004,1.564,1.272,2.83,2.836,2.83h2.306v10.545
		c0.002,1.551,1.25,2.809,2.796,2.832h1.695v-13.377h5.143V163.677z"/>
	<path clip-path="url(#SVGID_5_)" fill="#F37321" d="M96.78,169.833c-0.3-0.531-0.742-0.967-1.328-1.305
		c-0.588-0.338-1.382-0.506-2.379-0.506c-0.854,0-1.595,0.168-2.222,0.506c-0.629,0.338-1.19,0.846-1.688,1.521
		c-0.338-0.756-0.834-1.283-1.487-1.582c-0.65-0.297-1.373-0.445-2.16-0.445c-0.772,0-1.472,0.189-2.101,0.566
		c-0.627,0.379-1.126,0.881-1.496,1.51h-0.048v-1.715h-3.984v9.72c0.012,1.541,1.255,2.788,2.795,2.812h1.309v-6.109
		c0-1.271,0.166-2.156,0.494-2.656c0.33-0.498,0.867-0.748,1.607-0.748c0.563,0,0.961,0.215,1.194,0.641
		c0.233,0.428,0.351,1.01,0.351,1.75v4.287c0,1.553,1.248,2.813,2.797,2.836h1.308v-6.133c0-0.498,0.016-0.957,0.049-1.377
		c0.033-0.418,0.115-0.775,0.254-1.074c0.136-0.297,0.334-0.527,0.591-0.687c0.256-0.161,0.604-0.243,1.038-0.243
		c0.531,0,0.949,0.191,1.255,0.568c0.307,0.379,0.459,0.906,0.459,1.58v4.545c0.008,1.545,1.252,2.797,2.795,2.82h1.31v-7.486
		c0-0.594-0.043-1.209-0.134-1.846C97.27,170.947,97.077,170.365,96.78,169.833"/>
	<path clip-path="url(#SVGID_5_)" fill="#F37321" d="M110.772,163.677V174.3h-0.05l-5.987-10.623h-4.611v14.441
		c0.021,1.535,1.261,2.773,2.794,2.797h1.432v-10.744h0.048l5.987,10.744h4.612v-17.238H110.772z"/>
	<path clip-path="url(#SVGID_5_)" fill="#F37321" d="M61.382,172.67c-0.21-0.937-0.597-1.735-1.144-2.427
		c-0.547-0.691-1.239-1.234-2.076-1.629s-1.82-0.592-2.946-0.592c-0.918,0-1.787,0.164-2.608,0.494
		c-0.821,0.33-1.541,0.785-2.16,1.363c-0.62,0.58-1.108,1.273-1.462,2.078s-0.531,1.689-0.531,2.654
		c0,1.047,0.165,1.984,0.496,2.814c0.33,0.828,0.796,1.529,1.399,2.1c0.605,0.572,1.329,1.006,2.174,1.305
		c0.845,0.297,1.774,0.445,2.788,0.445c0.692,0,1.373-0.08,2.04-0.24c0.668-0.162,1.28-0.411,1.836-0.748
		c0.555-0.338,1.038-0.77,1.448-1.293c0.029-0.037,0.057-0.074,0.085-0.113c0.126-0.18,0.177-0.422,0.18-0.656
		c-0.001-0.609-0.459-1.078-1.062-1.102h-2.136c-0.193,0.469-0.507,0.813-0.942,1.039c-0.434,0.225-0.901,0.337-1.4,0.337
		c-0.869,0-1.545-0.257-2.028-0.772c-0.484-0.516-0.741-1.207-0.773-2.076h9.072C61.681,174.589,61.59,173.599,61.382,172.67
		 M52.56,173.357c0.129-0.771,0.422-1.391,0.881-1.857s1.051-0.701,1.775-0.701c0.692,0,1.263,0.25,1.714,0.75
		c0.451,0.498,0.692,1.102,0.725,1.809H52.56z"/>
	<path clip-path="url(#SVGID_5_)" fill="#F37321" d="M75.364,179.333c-0.041-0.555-0.061-1.098-0.061-1.629v-5.48
		c0-0.887-0.165-1.602-0.495-2.148c-0.33-0.549-0.768-0.975-1.316-1.281c-0.547-0.305-1.17-0.51-1.871-0.615
		c-0.7-0.104-1.421-0.156-2.161-0.156c-0.724,0-1.428,0.064-2.113,0.193c-0.684,0.127-1.307,0.354-1.871,0.676
		c-0.563,0.32-1.022,0.758-1.376,1.303c-0.354,0.549-0.547,1.232-0.579,2.053h3.838c0.194-1.047,0.878-1.57,2.053-1.57
		c0.209,0,0.43,0.025,0.663,0.074c0.234,0.047,0.448,0.125,0.64,0.229c0.194,0.105,0.354,0.238,0.484,0.398
		c0.128,0.16,0.193,0.361,0.193,0.604c0,0.387-0.093,0.656-0.277,0.809c-0.186,0.154-0.456,0.27-0.81,0.35
		c-0.483,0.098-0.994,0.178-1.533,0.242c-0.54,0.064-1.079,0.145-1.617,0.242c-0.54,0.096-1.059,0.225-1.558,0.387
		c-0.499,0.16-0.942,0.385-1.329,0.676c-0.386,0.289-0.691,0.66-0.916,1.109c-0.226,0.451-0.339,1.017-0.339,1.691
		c0,0.643,0.109,1.203,0.326,1.676c0.217,0.477,0.519,0.871,0.906,1.184c0.386,0.314,0.841,0.549,1.364,0.701
		c0.522,0.152,1.082,0.229,1.678,0.229c0.756,0,1.501-0.115,2.234-0.35c0.548-0.174,1.041-0.441,1.477-0.803
		c0.003-0.002,0.005-0.006,0.008-0.006c0.067-0.059,0.134-0.117,0.2-0.178c0.071-0.068,0.142-0.137,0.21-0.209h0.001
		c0.508,0.707,1.335,1.172,2.271,1.184h2.098C75.545,180.416,75.403,179.89,75.364,179.333 M70.86,177.875
		c-0.37,0.578-1.046,0.867-2.028,0.867c-0.467,0-0.869-0.107-1.207-0.324c-0.338-0.219-0.507-0.584-0.507-1.1
		c0-0.498,0.165-0.861,0.495-1.086c0.329-0.225,0.728-0.395,1.195-0.508c0.451-0.129,0.914-0.229,1.389-0.301
		c0.474-0.074,0.856-0.197,1.146-0.375C71.393,176.354,71.231,177.294,70.86,177.875"/>
	<path clip-path="url(#SVGID_5_)" fill="#0081C8" d="M68.279,203.33c0-6.268-5.082-11.35-11.351-11.35s-11.35,5.082-11.35,11.35
		c0,6.27,5.081,11.352,11.35,11.352c0.331,0,0.658-0.015,0.982-0.042c-0.024-0.299-0.036-0.601-0.036-0.904
		c0-0.336,0.015-0.669,0.044-0.997c-0.325,0.033-0.656,0.051-0.99,0.051c-5.224,0-9.458-4.234-9.458-9.459
		c0-5.224,4.234-9.459,9.458-9.459s9.459,4.235,9.459,9.459c0,4.197-2.733,7.756-6.516,8.992c-0.069,0.461-0.105,0.933-0.105,1.413
		c0,0.195,0.006,0.391,0.017,0.583C64.671,213.052,68.279,208.613,68.279,203.33"/>
	<path clip-path="url(#SVGID_5_)" fill="#EE334E" d="M117.466,203.33c0,6.27-5.082,11.352-11.353,11.352
		c-5.931,0-10.802-4.553-11.306-10.354c0.674,0.07,1.328,0.211,1.953,0.416c0.681,4.554,4.609,8.046,9.353,8.046
		c5.226,0,9.459-4.234,9.459-9.459c0-5.224-4.233-9.459-9.459-9.459c-5.027,0-9.138,3.924-9.439,8.875
		c-0.607-0.156-1.233-0.265-1.874-0.319c0.461-5.847,5.35-10.446,11.313-10.446C112.384,191.98,117.466,197.062,117.466,203.33"/>
	<path clip-path="url(#SVGID_5_)" fill="#00A651" d="M93.818,204.276c4.743,0,8.672,3.492,9.354,8.046
		c0.625,0.205,1.277,0.346,1.953,0.416c-0.506-5.802-5.375-10.354-11.307-10.354c-0.331,0-0.658,0.014-0.982,0.042
		c0.024,0.298,0.035,0.6,0.035,0.903c0,0.336-0.013,0.669-0.043,0.997C93.154,204.293,93.484,204.276,93.818,204.276
		 M103.258,214.318c-0.301,4.953-4.411,8.876-9.439,8.876c-5.224,0-9.458-4.235-9.458-9.459c0-4.197,2.732-7.755,6.515-8.992
		c0.069-0.461,0.106-0.933,0.106-1.413c0-0.195-0.007-0.391-0.02-0.584c-4.886,1.267-8.494,5.707-8.494,10.989
		c0,6.269,5.081,11.351,11.351,11.351c5.963,0,10.854-4.601,11.314-10.446C104.49,214.583,103.865,214.475,103.258,214.318"/>
	<path clip-path="url(#SVGID_5_)" fill="#FCB131" d="M68.236,204.327c0.029-0.328,0.043-0.661,0.043-0.997
		c0-0.304-0.012-0.605-0.035-0.903c0.323-0.028,0.651-0.042,0.981-0.042c5.933,0,10.802,4.552,11.307,10.354
		c-0.675-0.07-1.328-0.211-1.953-0.416c-0.682-4.554-4.61-8.046-9.354-8.046C68.891,204.276,68.561,204.293,68.236,204.327
		 M80.54,214.638c-0.46,5.846-5.351,10.447-11.315,10.447c-6.269,0-11.351-5.082-11.351-11.351c0-5.283,3.609-9.723,8.496-10.988
		c0.011,0.192,0.018,0.388,0.018,0.583c0,0.48-0.036,0.952-0.106,1.413c-3.783,1.237-6.515,4.796-6.515,8.992
		c0,5.224,4.234,9.459,9.458,9.459c5.028,0,9.139-3.923,9.441-8.876C79.272,214.475,79.898,214.583,80.54,214.638"/>
	<path clip-path="url(#SVGID_5_)" d="M81.521,191.98c-5.965,0-10.854,4.6-11.315,10.446c0.641,0.055,1.267,0.163,1.874,0.32
		c0.301-4.952,4.413-8.876,9.441-8.876c5.223,0,9.46,4.235,9.46,9.459c0,4.197-2.735,7.756-6.518,8.992
		c-0.068,0.461-0.104,0.933-0.104,1.413c0,0.195,0.006,0.391,0.019,0.583c4.887-1.266,8.493-5.705,8.493-10.988
		C92.871,197.062,87.789,191.98,81.521,191.98 M81.521,212.789c-4.744,0-8.672-3.492-9.354-8.046
		c-0.625-0.205-1.279-0.346-1.954-0.416c0.505,5.802,5.375,10.354,11.308,10.354c0.331,0,0.658-0.015,0.981-0.043
		c-0.023-0.298-0.035-0.6-0.035-0.903c0-0.336,0.014-0.669,0.043-0.997C82.186,212.771,81.855,212.789,81.521,212.789"/>
</g>
</svg>
